<svg width="657" height="122" viewBox="0 0 657 122" fill="none" xmlns="http://www.w3.org/2000/svg">
<path d="M17.875 60.625H31.4375C36.3958 60.625 40.875 59.9167 44.875 58.5C48.875 57.0833 52.2917 55.1042 55.125 52.5625C57.9167 50.0625 60.0625 47.0833 61.5625 43.625C63.1042 40.1667 63.875 36.3958 63.875 32.3125C63.875 27.9375 63.1042 23.9583 61.5625 20.375C60.0625 16.7917 57.9167 13.7083 55.125 11.125C52.2917 8.58333 48.875 6.60417 44.875 5.1875C40.875 3.72917 36.3958 3 31.4375 3H0.3125V94H17.875V60.625ZM17.875 46.375V17.25H31.4375C33.9375 17.25 36.1042 17.6458 37.9375 18.4375C39.7708 19.2292 41.3125 20.3125 42.5625 21.6875C43.7708 23.0625 44.6667 24.6667 45.25 26.5C45.875 28.3333 46.1875 30.3125 46.1875 32.4375C46.1875 34.2708 45.875 36.0417 45.25 37.75C44.6667 39.4167 43.7708 40.8958 42.5625 42.1875C41.3125 43.4792 39.7708 44.5 37.9375 45.25C36.1042 46 33.9375 46.375 31.4375 46.375H17.875ZM118.938 94H136.562V92.9375C135.688 91.2292 135.021 89.1875 134.562 86.8125C134.104 84.4375 133.875 81.4375 133.875 77.8125V48.8125C133.875 44.8958 133.146 41.4583 131.688 38.5C130.229 35.5 128.208 33.0208 125.625 31.0625C123.042 29.1042 119.979 27.625 116.438 26.625C112.938 25.625 109.146 25.125 105.062 25.125C100.521 25.125 96.4792 25.7083 92.9375 26.875C89.4375 28 86.4792 29.5417 84.0625 31.5C81.6042 33.4583 79.7292 35.7292 78.4375 38.3125C77.1875 40.8958 76.5625 43.625 76.5625 46.5H93.9375C93.9375 45.2917 94.1042 44.1875 94.4375 43.1875C94.8125 42.1875 95.375 41.3333 96.125 40.625C96.9583 39.8333 98.0417 39.2292 99.375 38.8125C100.708 38.3542 102.292 38.125 104.125 38.125C106.208 38.125 108.021 38.3958 109.562 38.9375C111.146 39.4375 112.458 40.1667 113.5 41.125C114.5 42.0417 115.25 43.1458 115.75 44.4375C116.25 45.6875 116.5 47.1042 116.5 48.6875V52.6875H106.812C101.812 52.6875 97.375 53.1458 93.5 54.0625C89.6667 54.9375 86.4375 56.2292 83.8125 57.9375C80.8958 59.8125 78.7083 62.2083 77.25 65.125C75.7917 68 75.0625 71.3125 75.0625 75.0625C75.0625 77.9792 75.6458 80.6875 76.8125 83.1875C77.9792 85.6458 79.6042 87.7708 81.6875 89.5625C83.7708 91.3542 86.25 92.75 89.125 93.75C92.0417 94.75 95.2292 95.25 98.6875 95.25C100.812 95.25 102.792 95.0417 104.625 94.625C106.458 94.25 108.146 93.7083 109.688 93C111.188 92.3333 112.562 91.5417 113.812 90.625C115.062 89.7083 116.167 88.7292 117.125 87.6875C117.333 88.8958 117.583 90.0417 117.875 91.125C118.167 92.2083 118.521 93.1667 118.938 94ZM102.375 81.8125C100.75 81.8125 99.3125 81.625 98.0625 81.25C96.8542 80.8333 95.8333 80.2917 95 79.625C94.1667 78.9167 93.5208 78.0625 93.0625 77.0625C92.6458 76.0208 92.4375 74.8958 92.4375 73.6875C92.4375 72.1458 92.7292 70.7292 93.3125 69.4375C93.8958 68.1042 94.7917 66.9583 96 66C97.2083 65.0833 98.7708 64.375 100.688 63.875C102.604 63.3333 104.917 63.0625 107.625 63.0625H116.5V74.6875C116 75.5625 115.312 76.4375 114.438 77.3125C113.562 78.1458 112.521 78.8958 111.312 79.5625C110.104 80.2292 108.75 80.7708 107.25 81.1875C105.75 81.6042 104.125 81.8125 102.375 81.8125ZM164.25 121.312C167.75 121.312 170.771 120.729 173.312 119.562C175.896 118.396 178.083 116.958 179.875 115.25C181.667 113.542 183.146 111.688 184.312 109.688C185.521 107.688 186.5 105.833 187.25 104.125L221.562 26.375H202.375L186.938 66.125L184.375 72.875L182.5 66L167 26.375H148L176.625 91.125L172.625 98.5625C172.125 99.4792 171.688 100.188 171.312 100.688C170.979 101.188 170.438 101.938 169.688 102.938C168.938 103.938 168.021 104.854 166.938 105.688C165.896 106.562 164.688 107 163.312 107C162.646 107 161.75 106.958 160.625 106.875C159.542 106.833 158.646 106.812 157.938 106.812L155.812 120.062C157.312 120.479 158.667 120.792 159.875 121C161.125 121.208 162.583 121.312 164.25 121.312Z" fill="#153250"/>
<path d="M233.989 94V0.909088H287.852V8.54545H242.489V43.5909H283.625V51.2273H242.489V94H233.989ZM306.557 94V24.1818H314.42V34.9091H315.011C316.405 31.3939 318.83 28.5606 322.284 26.4091C325.769 24.2273 329.708 23.1364 334.102 23.1364C334.769 23.1364 335.511 23.1515 336.33 23.1818C337.148 23.2121 337.83 23.2424 338.375 23.2727V31.5C338.011 31.4394 337.375 31.3485 336.466 31.2273C335.557 31.1061 334.572 31.0455 333.511 31.0455C329.875 31.0455 326.633 31.8182 323.784 33.3636C320.966 34.8788 318.739 36.9848 317.102 39.6818C315.466 42.3788 314.648 45.4545 314.648 48.9091V94H306.557ZM352.273 94V24.1818H360.409V94H352.273ZM356.409 12.1818C354.742 12.1818 353.318 11.6212 352.136 10.5C350.955 9.34849 350.364 7.9697 350.364 6.36363C350.364 4.75757 350.955 3.39394 352.136 2.27273C353.318 1.12121 354.742 0.545448 356.409 0.545448C358.076 0.545448 359.5 1.12121 360.682 2.27273C361.864 3.39394 362.455 4.75757 362.455 6.36363C362.455 7.9697 361.864 9.34849 360.682 10.5C359.5 11.6212 358.076 12.1818 356.409 12.1818ZM410.034 95.4545C403.519 95.4545 397.883 93.9394 393.125 90.9091C388.367 87.8485 384.686 83.6212 382.08 78.2273C379.504 72.803 378.216 66.5606 378.216 59.5C378.216 52.4697 379.504 46.2273 382.08 40.7727C384.686 35.2879 388.277 31 392.852 27.9091C397.458 24.7879 402.777 23.2273 408.807 23.2273C412.595 23.2273 416.246 23.9242 419.761 25.3182C423.277 26.6818 426.428 28.7879 429.216 31.6364C432.034 34.4545 434.261 38.0152 435.898 42.3182C437.534 46.5909 438.352 51.6515 438.352 57.5V61.5H383.807V54.3636H430.08C430.08 49.8788 429.17 45.8485 427.352 42.2727C425.564 38.6667 423.064 35.8182 419.852 33.7273C416.67 31.6364 412.989 30.5909 408.807 30.5909C404.383 30.5909 400.489 31.7727 397.125 34.1364C393.761 36.5 391.125 39.6212 389.216 43.5C387.337 47.3788 386.383 51.6212 386.352 56.2273V60.5C386.352 66.0455 387.307 70.8939 389.216 75.0455C391.155 79.1667 393.898 82.3636 397.443 84.6364C400.989 86.9091 405.186 88.0455 410.034 88.0455C413.337 88.0455 416.231 87.5303 418.716 86.5C421.231 85.4697 423.337 84.0909 425.034 82.3636C426.761 80.6061 428.064 78.6818 428.943 76.5909L436.625 79.0909C435.564 82.0303 433.822 84.7424 431.398 87.2273C429.004 89.7121 426.004 91.7121 422.398 93.2273C418.822 94.7121 414.701 95.4545 410.034 95.4545ZM464.273 50.3636V94H456.182V24.1818H464.045V35.1364H464.773C466.409 31.5606 468.955 28.697 472.409 26.5455C475.894 24.3636 480.197 23.2727 485.318 23.2727C490.015 23.2727 494.136 24.2576 497.682 26.2273C501.258 28.1667 504.03 31.0303 506 34.8182C508 38.6061 509 43.2576 509 48.7727V94H500.909V49.2727C500.909 43.5455 499.303 39.0151 496.091 35.6818C492.909 32.3485 488.636 30.6818 483.273 30.6818C479.606 30.6818 476.348 31.4697 473.5 33.0455C470.652 34.6212 468.394 36.8939 466.727 39.8636C465.091 42.803 464.273 46.303 464.273 50.3636ZM555.443 95.4545C549.716 95.4545 544.701 93.9394 540.398 90.9091C536.095 87.8788 532.731 83.6515 530.307 78.2273C527.913 72.803 526.716 66.4848 526.716 59.2727C526.716 52.0909 527.913 45.803 530.307 40.4091C532.731 34.9848 536.11 30.7727 540.443 27.7727C544.777 24.7424 549.822 23.2273 555.58 23.2273C559.822 23.2273 563.352 23.9848 566.17 25.5C568.989 26.9848 571.246 28.8333 572.943 31.0455C574.64 33.2576 575.958 35.4091 576.898 37.5H577.625V0.909088H585.761V94H577.852V81.0455H576.898C575.958 83.1667 574.625 85.3485 572.898 87.5909C571.17 89.803 568.883 91.6667 566.034 93.1818C563.216 94.697 559.686 95.4545 555.443 95.4545ZM556.398 88.0455C560.913 88.0455 564.761 86.8182 567.943 84.3636C571.125 81.8788 573.549 78.4697 575.216 74.1364C576.913 69.7727 577.761 64.7727 577.761 59.1364C577.761 53.5606 576.928 48.6364 575.261 44.3636C573.595 40.0606 571.17 36.697 567.989 34.2727C564.807 31.8182 560.943 30.5909 556.398 30.5909C551.731 30.5909 547.792 31.8636 544.58 34.4091C541.398 36.9242 538.973 40.3333 537.307 44.6364C535.67 48.9394 534.852 53.7727 534.852 59.1364C534.852 64.5606 535.686 69.4545 537.352 73.8182C539.019 78.1818 541.443 81.6515 544.625 84.2273C547.837 86.7727 551.761 88.0455 556.398 88.0455ZM655.716 39.5L648.307 41.5909C647.58 39.5 646.549 37.6061 645.216 35.9091C643.883 34.2121 642.14 32.8636 639.989 31.8636C637.867 30.8636 635.231 30.3636 632.08 30.3636C627.352 30.3636 623.473 31.4848 620.443 33.7273C617.413 35.9697 615.898 38.8636 615.898 42.4091C615.898 45.4091 616.928 47.8485 618.989 49.7273C621.08 51.5758 624.292 53.0455 628.625 54.1364L639.17 56.7273C645.019 58.1515 649.398 60.4091 652.307 63.5C655.246 66.5909 656.716 70.4697 656.716 75.1364C656.716 79.0758 655.625 82.5758 653.443 85.6364C651.261 88.697 648.216 91.1061 644.307 92.8636C640.428 94.5909 635.928 95.4545 630.807 95.4545C623.989 95.4545 618.367 93.9242 613.943 90.8636C609.519 87.7727 606.686 83.3182 605.443 77.5L613.216 75.5909C614.216 79.7424 616.17 82.8788 619.08 85C622.019 87.1212 625.883 88.1818 630.67 88.1818C636.034 88.1818 640.322 86.9848 643.534 84.5909C646.746 82.1667 648.352 79.1364 648.352 75.5C648.352 72.6818 647.413 70.3182 645.534 68.4091C643.655 66.4697 640.807 65.0455 636.989 64.1364L625.58 61.4091C619.519 59.9545 615.034 57.6515 612.125 54.5C609.216 51.3485 607.761 47.4394 607.761 42.7727C607.761 38.9242 608.807 35.5455 610.898 32.6364C612.989 29.697 615.867 27.3939 619.534 25.7273C623.201 24.0606 627.383 23.2273 632.08 23.2273C638.473 23.2273 643.58 24.6818 647.398 27.5909C651.246 30.4697 654.019 34.4394 655.716 39.5Z" fill="#8CB1F5"/>
</svg>
